<svg xmlns="http://www.w3.org/2000/svg" xmlns:xlink="http://www.w3.org/1999/xlink" width="24" height="24" viewBox="0 0 24 24">
    <defs>
        <path id="4w8oolq65a" d="M12 16c-.258 0-.516-.098-.713-.295l-4.992-4.986c-.393-.393-.393-1.03 0-1.424.394-.393 1.033-.393 1.427 0L12 13.568l4.278-4.273c.394-.393 1.033-.393 1.427 0 .393.393.393 1.031 0 1.424l-4.992 4.986c-.197.197-.455.295-.713.295z"/>
    </defs>
    <g fill="none" fill-rule="evenodd">
        <g>
            <g>
                <g>
                    <g transform="translate(-280 -134) translate(0 120) translate(237 14) translate(43)">
                        <mask id="ns3d19a5vb" fill="#fff">
                            <use xlink:href="#4w8oolq65a"/>
                        </mask>
                        <g fill="#FFF" fill-opacity=".8" mask="url(#ns3d19a5vb)">
                            <path d="M0 0H24V24H0z"/>
                        </g>
                    </g>
                </g>
            </g>
        </g>
    </g>
</svg>
