<svg xmlns="http://www.w3.org/2000/svg" xmlns:xlink="http://www.w3.org/1999/xlink" width="24" height="24"
    viewBox="0 0 24 24">
    <defs>
        <path id="t3aliyne2a"
            d="M12.002 16.995c.275.03.563-.064.78-.28l5.934-5.928c.381-.38.38-1.01-.009-1.41l-.069-.071c-.386-.398-1.014-.412-1.416-.017l-5.22 5.13-5.22-5.13c-.402-.395-1.03-.381-1.416.017l-.069.07c-.388.4-.39 1.03-.009 1.411l5.935 5.928c.217.216.504.31.78.28zM0 12C0 5.373 5.373 0 12 0s12 5.373 12 12-5.373 12-12 12S0 18.627 0 12z" />
    </defs>
    <g fill="none" fill-rule="evenodd">
        <g>
            <mask id="xykyockesb" fill="#fff">
                <use xlink:href="#t3aliyne2a" />
            </mask>
            <g fill="rgba(248,248,248,0.6)" mask="url(#xykyockesb)">
                <path d="M0 0H24V24H0z" />
            </g>
        </g>
    </g>
</svg>