<svg xmlns="http://www.w3.org/2000/svg" xmlns:xlink="http://www.w3.org/1999/xlink" width="24" height="24"
    viewBox="0 0 24 24">
    <defs>
        <path id="8nl2n3d9pa"
            d="M20.586 6H16.99C16.45 6 16 5.552 16 5c0-.556.446-1 .997-1h6.006c.544 0 .997.446.997.997v6.006c0 .544-.448.997-1 .997-.556 0-1-.444-1-.99V7.413l-7.293 7.293c-.39.39-1.024.39-1.414 0-.39-.39-.39-1.024 0-1.414L20.586 6zm-4.122 2l-2 2H10v8h8v-4.464l2-2v7.462C20 19.55 19.544 20 18.998 20H9.002C8.45 20 8 19.544 8 18.998V9.002C8 8.45 8.456 8 9.002 8h7.462z" />
    </defs>
    <g fill="none" fill-rule="evenodd">
        <g>
            <mask id="a87bpedptb" fill="#fff">
                <use xlink:href="#8nl2n3d9pa" />
            </mask>
            <g fill="rgba(248,248,248,0.6)" mask="url(#a87bpedptb)">
                <path d="M0 0H24V24H0z" />
            </g>
        </g>
    </g>
</svg>