<!-- Font Awesome Free - CC-BY 4.0 -https://fontawesome.com/license/free -->

<svg xmlns="http://www.w3.org/2000/svg" xmlns:xlink="http://www.w3.org/1999/xlink" width="24" height="24"
    viewBox="0 0 24 24">
    <defs>
        <path id="1k0bsuzdha"
            d="M14.47 0c.308 0 .568.216.605.504l.468 3.18c.753.3 1.444.696 2.085 1.176l3.072-1.2c.271-.096.605 0 .753.264l2.467 4.152c.148.264.086.588-.148.768l-2.603 1.98c.05.384.086.768.086 1.176 0 .408-.037.792-.086 1.176l2.603 1.98c.234.18.296.504.148.768l-2.467 4.152c-.148.264-.47.372-.753.264l-3.072-1.2c-.641.468-1.332.876-2.085 1.176l-.468 3.18c-.037.288-.297.504-.605.504H9.535c-.308 0-.567-.216-.604-.504l-.469-3.18c-.752-.3-1.443-.696-2.085-1.176l-3.072 1.2c-.271.096-.604 0-.752-.264L.086 15.924c-.149-.264-.087-.588.148-.768l2.603-1.98c-.05-.384-.087-.78-.087-1.176 0-.396.037-.792.087-1.176L.234 8.844c-.235-.18-.309-.504-.148-.768l2.467-4.152c.148-.264.469-.372.752-.264l3.072 1.2c.642-.468 1.333-.876 2.085-1.176l.469-3.18C8.968.216 9.227 0 9.535 0zM12 7c-2.757 0-5 2.243-5 5s2.243 5 5 5 5-2.243 5-5-2.243-5-5-5z" />
    </defs>
    <g fill="none" fill-rule="evenodd">
        <g>
            <g transform="translate(-272 -28) translate(272 28)">
                <mask id="0khlraktqb" fill="#fff">
                    <use xlink:href="#1k0bsuzdha" />
                </mask>
                <g fill="#FFF" fill-opacity=".8" mask="url(#0khlraktqb)">
                    <path d="M0 0H24V24H0z" />
                </g>
            </g>
        </g>
    </g>
</svg>