<svg xmlns="http://www.w3.org/2000/svg" xmlns:xlink="http://www.w3.org/1999/xlink" width="24" height="24"
    viewBox="0 0 24 24">
    <defs>
        <path id="ajdlvl3d8a"
            d="M12 24C5.373 24 0 18.627 0 12S5.373 0 12 0s12 5.373 12 12-5.373 12-12 12zm0-19.5c-.828 0-1.5.672-1.5 1.5v7.5c0 .828.672 1.5 1.5 1.5s1.5-.672 1.5-1.5V6c0-.828-.672-1.5-1.5-1.5zm0 12c-.828 0-1.5.672-1.5 1.5s.672 1.5 1.5 1.5 1.5-.672 1.5-1.5-.672-1.5-1.5-1.5z" />
    </defs>
    <g fill="none" fill-rule="evenodd">
        <g>
            <mask id="micu9hqukb" fill="rgba(255, 213, 36, 1)">
                <use xlink:href="#ajdlvl3d8a" />
            </mask>
            <g fill="rgba(255, 213, 36, 1)" mask="url(#micu9hqukb)">
                <path d="M0 0H24V24H0z" />
            </g>
        </g>
    </g>
</svg>