<svg xmlns="http://www.w3.org/2000/svg" width="1em" height="1em" viewBox="0 0 21 21">
    <path fill="currentColor"
        d="M9 21q-1.65 0-2.825-1.175T5 17V8.825Q4.125 8.5 3.562 7.738T3 6q0-1.25.875-2.125T6 3q1.25 0 2.125.875T9 6q0 .975-.563 1.738T7 8.825V17q0 .825.588 1.413T9 19q.825 0 1.413-.588T11 17V7q0-1.65 1.175-2.825T15 3q1.65 0 2.825 1.175T19 7v8.175q.875.325 1.438 1.088T21 18q0 1.25-.875 2.125T18 21q-1.25 0-2.125-.875T15 18q0-.975.563-1.75T17 15.175V7q0-.825-.588-1.413T15 5q-.825 0-1.413.588T13 7v10q0 1.65-1.175 2.825T9 21ZM6 7q.425 0 .713-.288T7 6q0-.425-.288-.713T6 5q-.425 0-.713.288T5 6q0 .425.288.713T6 7Zm12 12q.425 0 .713-.288T19 18q0-.425-.288-.713T18 17q-.425 0-.713.288T17 18q0 .425.288.713T18 19ZM6 6Zm12 12Z" />
</svg>